<svg width="77" height="70" viewBox="0 0 77 70" fill="none" xmlns="http://www.w3.org/2000/svg">
<g clip-path="url(#clip0_62_1035)">
<path d="M38.4996 20.78C38.0946 20.78 37.7046 20.6 37.4446 20.29L32.9496 15C32.5946 14.585 32.5196 14.015 32.7496 13.52C32.9796 13.025 33.4596 12.715 34.0096 12.715H35.7946V10.46C35.7946 10.19 36.0096 9.97501 36.2796 9.97501H40.7296C40.9996 9.97501 41.2146 10.19 41.2146 10.46V12.715H42.9996C43.5446 12.715 44.0296 13.025 44.2596 13.52C44.4896 14.015 44.4096 14.585 44.0596 15L39.5646 20.29C39.2896 20.6 38.9046 20.78 38.4996 20.78ZM34.0046 13.685C33.7596 13.685 33.6546 13.87 33.6246 13.925C33.5996 13.98 33.5246 14.18 33.6846 14.37L38.1796 19.66C38.2896 19.79 38.4246 19.805 38.4996 19.805C38.5696 19.805 38.7096 19.785 38.8146 19.66L43.3096 14.37C43.4696 14.18 43.3946 13.98 43.3696 13.925C43.3446 13.87 43.2396 13.685 42.9896 13.685H34.0046ZM36.7596 12.715H40.2396V10.945H36.7596V12.715Z" fill="#828487"/>
<path d="M52.495 23.935H24.495C23.395 23.935 22.5 23.04 22.5 21.935V19.52C22.5 18.42 23.395 17.525 24.495 17.525H29.08C29.35 17.525 29.565 17.74 29.565 18.01C29.565 18.28 29.35 18.495 29.08 18.495H24.495C23.93 18.495 23.465 18.955 23.465 19.525V21.94C23.465 22.505 23.925 22.97 24.495 22.97H52.495C53.065 22.97 53.53 22.51 53.53 21.94V19.525C53.53 18.96 53.065 18.495 52.495 18.495H47.915C47.645 18.495 47.43 18.28 47.43 18.01C47.43 17.74 47.645 17.525 47.915 17.525H52.495C53.6 17.525 54.5 18.42 54.5 19.52V21.935C54.5 23.04 53.6 23.935 52.495 23.935Z" fill="#828487"/>
<path d="M44.3449 18.495H40.85C40.58 18.495 40.365 18.28 40.365 18.01C40.365 17.74 40.58 17.525 40.85 17.525H44.3449C44.615 17.525 44.83 17.74 44.83 18.01C44.83 18.28 44.615 18.495 44.3449 18.495ZM36.145 18.495H32.65C32.38 18.495 32.165 18.28 32.165 18.01C32.165 17.74 32.38 17.525 32.65 17.525H36.145C36.415 17.525 36.63 17.74 36.63 18.01C36.63 18.28 36.41 18.495 36.145 18.495ZM48.325 39.165H28.67C27.425 39.165 26.36 38.235 26.19 37L24.35 23.515C24.315 23.25 24.5 23.005 24.765 22.97C25.03 22.935 25.275 23.12 25.31 23.385L27.15 36.87C27.255 37.625 27.905 38.195 28.67 38.195H48.325C49.09 38.195 49.74 37.625 49.8449 36.87L51.69 23.385C51.725 23.12 51.975 22.935 52.235 22.97C52.5 23.005 52.6849 23.25 52.65 23.515L50.805 37C50.64 38.235 49.57 39.165 48.325 39.165Z" fill="#828487"/>
<path d="M30.0805 35.74C29.8405 35.74 29.6355 35.565 29.6005 35.325L28.4155 26.945C28.3805 26.68 28.5605 26.435 28.8255 26.395C29.0855 26.355 29.3355 26.54 29.3755 26.805L30.5605 35.185C30.5955 35.45 30.4155 35.695 30.1505 35.735C30.1255 35.74 30.1005 35.74 30.0805 35.74ZM46.9205 35.74C46.8955 35.74 46.8755 35.74 46.8505 35.735C46.5855 35.7 46.4005 35.45 46.4405 35.185L47.6255 26.805C47.6605 26.54 47.9105 26.355 48.1755 26.395C48.4405 26.43 48.6255 26.68 48.5855 26.945L47.4005 35.325C47.3655 35.565 47.1555 35.74 46.9205 35.74ZM33.4805 35.74C33.2355 35.74 33.0255 35.555 33.0005 35.31L32.0905 26.93C32.0605 26.665 32.2555 26.425 32.5205 26.395C32.7855 26.365 33.0255 26.56 33.0555 26.825L33.9655 35.205C33.9955 35.47 33.8005 35.71 33.5355 35.74C33.5155 35.74 33.5005 35.74 33.4805 35.74ZM43.5155 35.74C43.4955 35.74 43.4805 35.74 43.4605 35.735C43.1955 35.705 43.0005 35.465 43.0305 35.2L43.9405 26.82C43.9705 26.555 44.2105 26.36 44.4755 26.39C44.7405 26.42 44.9355 26.66 44.9055 26.925L43.9955 35.305C43.9705 35.555 43.7605 35.74 43.5155 35.74Z" fill="#828487"/>
<path d="M36.7796 35.74C36.5196 35.74 36.3046 35.535 36.2946 35.275L35.9496 26.895C35.9396 26.63 36.1446 26.4 36.4146 26.39C36.6796 26.375 36.9096 26.585 36.9196 26.855L37.2646 35.235C37.2746 35.5 37.0696 35.73 36.7996 35.74C36.7896 35.74 36.7846 35.74 36.7796 35.74ZM40.2196 35.74C40.2146 35.74 40.2046 35.74 40.1996 35.74C39.9346 35.73 39.7246 35.505 39.7346 35.235L40.0796 26.855C40.0896 26.585 40.3196 26.38 40.5846 26.39C40.8496 26.4 41.0596 26.625 41.0496 26.895L40.7046 35.275C40.6896 35.535 40.4796 35.74 40.2196 35.74Z" fill="#828487"/>
<path d="M44.8404 21.545C44.4204 21.545 44.0154 21.405 43.6804 21.145C43.2804 20.835 43.0304 20.385 42.9704 19.885C42.9104 19.385 43.0454 18.89 43.3554 18.49L50.3404 9.56C50.9804 8.74 52.1704 8.595 52.9904 9.235C53.8104 9.875 53.9554 11.065 53.3154 11.885L46.3354 20.82C46.0254 21.22 45.5754 21.47 45.0754 21.53C44.9954 21.54 44.9204 21.545 44.8404 21.545ZM44.2804 20.38C44.4754 20.53 44.7154 20.6 44.9604 20.57C45.2054 20.54 45.4204 20.415 45.5754 20.225L52.5554 11.29C52.8654 10.89 52.7954 10.31 52.3954 10C51.9954 9.685 51.4154 9.76 51.1054 10.16L44.1204 19.09C43.9704 19.285 43.9004 19.525 43.9304 19.77C43.9604 20.01 44.0854 20.23 44.2804 20.38ZM32.1554 21.545C32.0804 21.545 32.0004 21.54 31.9204 21.53C31.4204 21.47 30.9704 21.215 30.6604 20.82L23.6804 11.885C23.0404 11.065 23.1854 9.875 24.0054 9.235C24.8254 8.595 26.0154 8.74 26.6554 9.56L33.6404 18.495C33.9504 18.895 34.0904 19.385 34.0254 19.89C33.9654 20.39 33.7104 20.84 33.3154 21.15C32.9804 21.41 32.5754 21.545 32.1554 21.545ZM25.1654 9.805C24.9654 9.805 24.7654 9.87 24.6004 10C24.2004 10.31 24.1304 10.89 24.4454 11.29L31.4304 20.225C31.5804 20.42 31.8004 20.54 32.0454 20.57C32.2854 20.6 32.5304 20.535 32.7254 20.38C32.9204 20.23 33.0404 20.01 33.0704 19.765C33.1004 19.52 33.0354 19.28 32.8804 19.085L25.8904 10.155C25.7104 9.925 25.4404 9.805 25.1654 9.805Z" fill="#828487"/>
</g>
<path d="M27.3832 50.66V59H26.0152V53.288L23.4712 59H22.5232L19.9672 53.288V59H18.5992V50.66H20.0752L23.0032 57.2L25.9192 50.66H27.3832ZM28.7253 55.664C28.7253 55 28.8613 54.412 29.1333 53.9C29.4133 53.388 29.7893 52.992 30.2613 52.712C30.7413 52.424 31.2693 52.28 31.8453 52.28C32.3653 52.28 32.8173 52.384 33.2013 52.592C33.5933 52.792 33.9053 53.044 34.1373 53.348V52.388H35.5173V59H34.1373V58.016C33.9053 58.328 33.5893 58.588 33.1893 58.796C32.7893 59.004 32.3333 59.108 31.8213 59.108C31.2533 59.108 30.7333 58.964 30.2613 58.676C29.7893 58.38 29.4133 57.972 29.1333 57.452C28.8613 56.924 28.7253 56.328 28.7253 55.664ZM34.1373 55.688C34.1373 55.232 34.0413 54.836 33.8493 54.5C33.6653 54.164 33.4213 53.908 33.1173 53.732C32.8133 53.556 32.4853 53.468 32.1333 53.468C31.7813 53.468 31.4533 53.556 31.1493 53.732C30.8453 53.9 30.5973 54.152 30.4053 54.488C30.2213 54.816 30.1293 55.208 30.1293 55.664C30.1293 56.12 30.2213 56.52 30.4053 56.864C30.5973 57.208 30.8453 57.472 31.1493 57.656C31.4613 57.832 31.7893 57.92 32.1333 57.92C32.4853 57.92 32.8133 57.832 33.1173 57.656C33.4213 57.48 33.6653 57.224 33.8493 56.888C34.0413 56.544 34.1373 56.144 34.1373 55.688ZM39.7141 59.108C39.1941 59.108 38.7261 59.016 38.3101 58.832C37.9021 58.64 37.5781 58.384 37.3381 58.064C37.0981 57.736 36.9701 57.372 36.9541 56.972H38.3701C38.3941 57.252 38.5261 57.488 38.7661 57.68C39.0141 57.864 39.3221 57.956 39.6901 57.956C40.0741 57.956 40.3701 57.884 40.5781 57.74C40.7941 57.588 40.9021 57.396 40.9021 57.164C40.9021 56.916 40.7821 56.732 40.5421 56.612C40.3101 56.492 39.9381 56.36 39.4261 56.216C38.9301 56.08 38.5261 55.948 38.2141 55.82C37.9021 55.692 37.6301 55.496 37.3981 55.232C37.1741 54.968 37.0621 54.62 37.0621 54.188C37.0621 53.836 37.1661 53.516 37.3741 53.228C37.5821 52.932 37.8781 52.7 38.2621 52.532C38.6541 52.364 39.1021 52.28 39.6061 52.28C40.3581 52.28 40.9621 52.472 41.4181 52.856C41.8821 53.232 42.1301 53.748 42.1621 54.404H40.7941C40.7701 54.108 40.6501 53.872 40.4341 53.696C40.2181 53.52 39.9261 53.432 39.5581 53.432C39.1981 53.432 38.9221 53.5 38.7301 53.636C38.5381 53.772 38.4421 53.952 38.4421 54.176C38.4421 54.352 38.5061 54.5 38.6341 54.62C38.7621 54.74 38.9181 54.836 39.1021 54.908C39.2861 54.972 39.5581 55.056 39.9181 55.16C40.3981 55.288 40.7901 55.42 41.0941 55.556C41.4061 55.684 41.6741 55.876 41.8981 56.132C42.1221 56.388 42.2381 56.728 42.2461 57.152C42.2461 57.528 42.1421 57.864 41.9341 58.16C41.7261 58.456 41.4301 58.688 41.0461 58.856C40.6701 59.024 40.2261 59.108 39.7141 59.108ZM45.3202 53.504V57.164C45.3202 57.412 45.3762 57.592 45.4882 57.704C45.6082 57.808 45.8082 57.86 46.0882 57.86H46.9282V59H45.8482C45.2322 59 44.7602 58.856 44.4322 58.568C44.1042 58.28 43.9402 57.812 43.9402 57.164V53.504H43.1602V52.388H43.9402V50.744H45.3202V52.388H46.9282V53.504H45.3202ZM54.2491 55.532C54.2491 55.78 54.2331 56.004 54.2011 56.204H49.1491C49.1891 56.732 49.3851 57.156 49.7371 57.476C50.0891 57.796 50.5211 57.956 51.0331 57.956C51.7691 57.956 52.2891 57.648 52.5931 57.032H54.0691C53.8691 57.64 53.5051 58.14 52.9771 58.532C52.4571 58.916 51.8091 59.108 51.0331 59.108C50.4011 59.108 49.8331 58.968 49.3291 58.688C48.8331 58.4 48.4411 58 48.1531 57.488C47.8731 56.968 47.7331 56.368 47.7331 55.688C47.7331 55.008 47.8691 54.412 48.1411 53.9C48.4211 53.38 48.8091 52.98 49.3051 52.7C49.8091 52.42 50.3851 52.28 51.0331 52.28C51.6571 52.28 52.2131 52.416 52.7011 52.688C53.1891 52.96 53.5691 53.344 53.8411 53.84C54.1131 54.328 54.2491 54.892 54.2491 55.532ZM52.8211 55.1C52.8131 54.596 52.6331 54.192 52.2811 53.888C51.9291 53.584 51.4931 53.432 50.9731 53.432C50.5011 53.432 50.0971 53.584 49.7611 53.888C49.4251 54.184 49.2251 54.588 49.1611 55.1H52.8211ZM56.9633 53.348C57.1633 53.012 57.4273 52.752 57.7553 52.568C58.0913 52.376 58.4873 52.28 58.9433 52.28V53.696H58.5953C58.0593 53.696 57.6513 53.832 57.3713 54.104C57.0993 54.376 56.9633 54.848 56.9633 55.52V59H55.5953V52.388H56.9633V53.348Z" fill="#828487"/>
<defs>
<clipPath id="clip0_62_1035">
<rect width="32" height="32" fill="white" transform="translate(22.5 8)"/>
</clipPath>
</defs>
</svg>
