<svg width="77" height="70" viewBox="0 0 77 70" fill="none" xmlns="http://www.w3.org/2000/svg">
<rect width="77" height="70" rx="8" fill="#713F97"/>
<g clip-path="url(#clip0_62_979)">
<path d="M38.5001 20.78C38.0951 20.78 37.7051 20.6 37.4451 20.29L32.9501 15C32.5951 14.585 32.5201 14.015 32.7501 13.52C32.9801 13.025 33.4601 12.715 34.0101 12.715H35.7951V10.46C35.7951 10.19 36.0101 9.97501 36.2801 9.97501H40.7301C41.0001 9.97501 41.2151 10.19 41.2151 10.46V12.715H43.0001C43.5451 12.715 44.0301 13.025 44.2601 13.52C44.4901 14.015 44.4101 14.585 44.0601 15L39.5651 20.29C39.2901 20.6 38.9051 20.78 38.5001 20.78ZM34.0051 13.685C33.7601 13.685 33.6551 13.87 33.6251 13.925C33.6001 13.98 33.5251 14.18 33.6851 14.37L38.1801 19.66C38.2901 19.79 38.4251 19.805 38.5001 19.805C38.5701 19.805 38.7101 19.785 38.8151 19.66L43.3101 14.37C43.4701 14.18 43.3951 13.98 43.3701 13.925C43.3451 13.87 43.2401 13.685 42.9901 13.685H34.0051ZM36.7601 12.715H40.2401V10.945H36.7601V12.715Z" fill="white"/>
<path d="M52.495 23.935H24.495C23.395 23.935 22.5 23.04 22.5 21.935V19.52C22.5 18.42 23.395 17.525 24.495 17.525H29.08C29.35 17.525 29.565 17.74 29.565 18.01C29.565 18.28 29.35 18.495 29.08 18.495H24.495C23.93 18.495 23.465 18.955 23.465 19.525V21.94C23.465 22.505 23.925 22.97 24.495 22.97H52.495C53.065 22.97 53.53 22.51 53.53 21.94V19.525C53.53 18.96 53.065 18.495 52.495 18.495H47.915C47.645 18.495 47.43 18.28 47.43 18.01C47.43 17.74 47.645 17.525 47.915 17.525H52.495C53.6 17.525 54.5 18.42 54.5 19.52V21.935C54.5 23.04 53.6 23.935 52.495 23.935Z" fill="white"/>
<path d="M44.3449 18.495H40.85C40.58 18.495 40.365 18.28 40.365 18.01C40.365 17.74 40.58 17.525 40.85 17.525H44.3449C44.615 17.525 44.83 17.74 44.83 18.01C44.83 18.28 44.615 18.495 44.3449 18.495ZM36.145 18.495H32.65C32.38 18.495 32.165 18.28 32.165 18.01C32.165 17.74 32.38 17.525 32.65 17.525H36.145C36.415 17.525 36.63 17.74 36.63 18.01C36.63 18.28 36.41 18.495 36.145 18.495ZM48.325 39.165H28.67C27.425 39.165 26.36 38.235 26.19 37L24.35 23.515C24.315 23.25 24.5 23.005 24.765 22.97C25.03 22.935 25.275 23.12 25.31 23.385L27.15 36.87C27.255 37.625 27.905 38.195 28.67 38.195H48.325C49.09 38.195 49.74 37.625 49.8449 36.87L51.69 23.385C51.725 23.12 51.975 22.935 52.235 22.97C52.5 23.005 52.6849 23.25 52.65 23.515L50.805 37C50.64 38.235 49.57 39.165 48.325 39.165Z" fill="white"/>
<path d="M30.08 35.74C29.84 35.74 29.635 35.565 29.6 35.325L28.415 26.945C28.38 26.68 28.56 26.435 28.825 26.395C29.085 26.355 29.335 26.54 29.375 26.805L30.56 35.185C30.595 35.45 30.415 35.695 30.15 35.735C30.125 35.74 30.1 35.74 30.08 35.74ZM46.92 35.74C46.895 35.74 46.875 35.74 46.85 35.735C46.585 35.7 46.4 35.45 46.44 35.185L47.625 26.805C47.66 26.54 47.91 26.355 48.175 26.395C48.44 26.43 48.625 26.68 48.585 26.945L47.4 35.325C47.365 35.565 47.155 35.74 46.92 35.74ZM33.48 35.74C33.235 35.74 33.025 35.555 33 35.31L32.09 26.93C32.06 26.665 32.255 26.425 32.52 26.395C32.785 26.365 33.025 26.56 33.055 26.825L33.965 35.205C33.995 35.47 33.8 35.71 33.535 35.74C33.515 35.74 33.5 35.74 33.48 35.74ZM43.515 35.74C43.495 35.74 43.48 35.74 43.46 35.735C43.195 35.705 43 35.465 43.03 35.2L43.94 26.82C43.97 26.555 44.21 26.36 44.475 26.39C44.74 26.42 44.935 26.66 44.905 26.925L43.995 35.305C43.97 35.555 43.76 35.74 43.515 35.74Z" fill="white"/>
<path d="M36.7801 35.74C36.5201 35.74 36.3051 35.535 36.2951 35.275L35.9501 26.895C35.9401 26.63 36.1451 26.4 36.4151 26.39C36.6801 26.375 36.9101 26.585 36.9201 26.855L37.2651 35.235C37.2751 35.5 37.0701 35.73 36.8001 35.74C36.7901 35.74 36.7851 35.74 36.7801 35.74ZM40.2201 35.74C40.2151 35.74 40.2051 35.74 40.2001 35.74C39.9351 35.73 39.7251 35.505 39.7351 35.235L40.0801 26.855C40.0901 26.585 40.3201 26.38 40.5851 26.39C40.8501 26.4 41.0601 26.625 41.0501 26.895L40.7051 35.275C40.6901 35.535 40.4801 35.74 40.2201 35.74Z" fill="white"/>
<path d="M44.8399 21.545C44.4199 21.545 44.0149 21.405 43.6799 21.145C43.2799 20.835 43.0299 20.385 42.9699 19.885C42.9099 19.385 43.0449 18.89 43.3549 18.49L50.3399 9.56C50.9799 8.74 52.1699 8.595 52.9899 9.235C53.8099 9.875 53.9549 11.065 53.3149 11.885L46.3349 20.82C46.0249 21.22 45.5749 21.47 45.0749 21.53C44.9949 21.54 44.9199 21.545 44.8399 21.545ZM44.2799 20.38C44.4749 20.53 44.7149 20.6 44.9599 20.57C45.2049 20.54 45.4199 20.415 45.5749 20.225L52.5549 11.29C52.8649 10.89 52.7949 10.31 52.3949 10C51.9949 9.685 51.4149 9.76 51.1049 10.16L44.1199 19.09C43.9699 19.285 43.8999 19.525 43.9299 19.77C43.9599 20.01 44.0849 20.23 44.2799 20.38ZM32.1549 21.545C32.0799 21.545 31.9999 21.54 31.9199 21.53C31.4199 21.47 30.9699 21.215 30.6599 20.82L23.6799 11.885C23.0399 11.065 23.1849 9.875 24.0049 9.235C24.8249 8.595 26.0149 8.74 26.6549 9.56L33.6399 18.495C33.9499 18.895 34.0899 19.385 34.0249 19.89C33.9649 20.39 33.7099 20.84 33.3149 21.15C32.9799 21.41 32.5749 21.545 32.1549 21.545ZM25.1649 9.805C24.9649 9.805 24.7649 9.87 24.5999 10C24.1999 10.31 24.1299 10.89 24.4449 11.29L31.4299 20.225C31.5799 20.42 31.7999 20.54 32.0449 20.57C32.2849 20.6 32.5299 20.535 32.7249 20.38C32.9199 20.23 33.0399 20.01 33.0699 19.765C33.0999 19.52 33.0349 19.28 32.8799 19.085L25.8899 10.155C25.7099 9.925 25.4399 9.805 25.1649 9.805Z" fill="white"/>
</g>
<path d="M27.3832 50.66V59H26.0152V53.288L23.4712 59H22.5232L19.9672 53.288V59H18.5992V50.66H20.0752L23.0032 57.2L25.9192 50.66H27.3832ZM28.7253 55.664C28.7253 55 28.8613 54.412 29.1333 53.9C29.4133 53.388 29.7893 52.992 30.2613 52.712C30.7413 52.424 31.2693 52.28 31.8453 52.28C32.3653 52.28 32.8173 52.384 33.2013 52.592C33.5933 52.792 33.9053 53.044 34.1373 53.348V52.388H35.5173V59H34.1373V58.016C33.9053 58.328 33.5893 58.588 33.1893 58.796C32.7893 59.004 32.3333 59.108 31.8213 59.108C31.2533 59.108 30.7333 58.964 30.2613 58.676C29.7893 58.38 29.4133 57.972 29.1333 57.452C28.8613 56.924 28.7253 56.328 28.7253 55.664ZM34.1373 55.688C34.1373 55.232 34.0413 54.836 33.8493 54.5C33.6653 54.164 33.4213 53.908 33.1173 53.732C32.8133 53.556 32.4853 53.468 32.1333 53.468C31.7813 53.468 31.4533 53.556 31.1493 53.732C30.8453 53.9 30.5973 54.152 30.4053 54.488C30.2213 54.816 30.1293 55.208 30.1293 55.664C30.1293 56.12 30.2213 56.52 30.4053 56.864C30.5973 57.208 30.8453 57.472 31.1493 57.656C31.4613 57.832 31.7893 57.92 32.1333 57.92C32.4853 57.92 32.8133 57.832 33.1173 57.656C33.4213 57.48 33.6653 57.224 33.8493 56.888C34.0413 56.544 34.1373 56.144 34.1373 55.688ZM39.7141 59.108C39.1941 59.108 38.7261 59.016 38.3101 58.832C37.9021 58.64 37.5781 58.384 37.3381 58.064C37.0981 57.736 36.9701 57.372 36.9541 56.972H38.3701C38.3941 57.252 38.5261 57.488 38.7661 57.68C39.0141 57.864 39.3221 57.956 39.6901 57.956C40.0741 57.956 40.3701 57.884 40.5781 57.74C40.7941 57.588 40.9021 57.396 40.9021 57.164C40.9021 56.916 40.7821 56.732 40.5421 56.612C40.3101 56.492 39.9381 56.36 39.4261 56.216C38.9301 56.08 38.5261 55.948 38.2141 55.82C37.9021 55.692 37.6301 55.496 37.3981 55.232C37.1741 54.968 37.0621 54.62 37.0621 54.188C37.0621 53.836 37.1661 53.516 37.3741 53.228C37.5821 52.932 37.8781 52.7 38.2621 52.532C38.6541 52.364 39.1021 52.28 39.6061 52.28C40.3581 52.28 40.9621 52.472 41.4181 52.856C41.8821 53.232 42.1301 53.748 42.1621 54.404H40.7941C40.7701 54.108 40.6501 53.872 40.4341 53.696C40.2181 53.52 39.9261 53.432 39.5581 53.432C39.1981 53.432 38.9221 53.5 38.7301 53.636C38.5381 53.772 38.4421 53.952 38.4421 54.176C38.4421 54.352 38.5061 54.5 38.6341 54.62C38.7621 54.74 38.9181 54.836 39.1021 54.908C39.2861 54.972 39.5581 55.056 39.9181 55.16C40.3981 55.288 40.7901 55.42 41.0941 55.556C41.4061 55.684 41.6741 55.876 41.8981 56.132C42.1221 56.388 42.2381 56.728 42.2461 57.152C42.2461 57.528 42.1421 57.864 41.9341 58.16C41.7261 58.456 41.4301 58.688 41.0461 58.856C40.6701 59.024 40.2261 59.108 39.7141 59.108ZM45.3202 53.504V57.164C45.3202 57.412 45.3762 57.592 45.4882 57.704C45.6082 57.808 45.8082 57.86 46.0882 57.86H46.9282V59H45.8482C45.2322 59 44.7602 58.856 44.4322 58.568C44.1042 58.28 43.9402 57.812 43.9402 57.164V53.504H43.1602V52.388H43.9402V50.744H45.3202V52.388H46.9282V53.504H45.3202ZM54.2491 55.532C54.2491 55.78 54.2331 56.004 54.2011 56.204H49.1491C49.1891 56.732 49.3851 57.156 49.7371 57.476C50.0891 57.796 50.5211 57.956 51.0331 57.956C51.7691 57.956 52.2891 57.648 52.5931 57.032H54.0691C53.8691 57.64 53.5051 58.14 52.9771 58.532C52.4571 58.916 51.8091 59.108 51.0331 59.108C50.4011 59.108 49.8331 58.968 49.3291 58.688C48.8331 58.4 48.4411 58 48.1531 57.488C47.8731 56.968 47.7331 56.368 47.7331 55.688C47.7331 55.008 47.8691 54.412 48.1411 53.9C48.4211 53.38 48.8091 52.98 49.3051 52.7C49.8091 52.42 50.3851 52.28 51.0331 52.28C51.6571 52.28 52.2131 52.416 52.7011 52.688C53.1891 52.96 53.5691 53.344 53.8411 53.84C54.1131 54.328 54.2491 54.892 54.2491 55.532ZM52.8211 55.1C52.8131 54.596 52.6331 54.192 52.2811 53.888C51.9291 53.584 51.4931 53.432 50.9731 53.432C50.5011 53.432 50.0971 53.584 49.7611 53.888C49.4251 54.184 49.2251 54.588 49.1611 55.1H52.8211ZM56.9633 53.348C57.1633 53.012 57.4273 52.752 57.7553 52.568C58.0913 52.376 58.4873 52.28 58.9433 52.28V53.696H58.5953C58.0593 53.696 57.6513 53.832 57.3713 54.104C57.0993 54.376 56.9633 54.848 56.9633 55.52V59H55.5953V52.388H56.9633V53.348Z" fill="white"/>
<defs>
<clipPath id="clip0_62_979">
<rect width="32" height="32" fill="white" transform="translate(22.5 8)"/>
</clipPath>
</defs>
</svg>
