<svg width="77" height="81" viewBox="0 0 77 81" fill="none" xmlns="http://www.w3.org/2000/svg">
<rect width="77" height="81" rx="8" fill="#713F97"/>
<g clip-path="url(#clip0_62_1050)">
<path d="M36.4002 29.5C36.4002 29.885 36.0852 30.2 35.7002 30.2H29.4002C29.0152 30.2 28.7002 29.885 28.7002 29.5C28.7002 29.115 29.0152 28.8 29.4002 28.8H35.7002C36.0852 28.8 36.4002 29.115 36.4002 29.5ZM34.3002 33.7H29.4002C29.0152 33.7 28.7002 34.015 28.7002 34.4C28.7002 34.785 29.0152 35.1 29.4002 35.1H34.3002C34.6852 35.1 35.0002 34.785 35.0002 34.4C35.0002 34.015 34.6852 33.7 34.3002 33.7ZM35.7002 23.9H29.4002C29.0152 23.9 28.7002 24.215 28.7002 24.6C28.7002 24.985 29.0152 25.3 29.4002 25.3H35.7002C36.0852 25.3 36.4002 24.985 36.4002 24.6C36.4002 24.215 36.0852 23.9 35.7002 23.9ZM51.8002 21.1V37.9C51.8002 38.285 51.4852 38.6 51.1002 38.6H25.9002C25.5152 38.6 25.2002 38.285 25.2002 37.9V21.1C25.2002 20.715 25.5152 20.4 25.9002 20.4H51.1002C51.4852 20.4 51.8002 20.715 51.8002 21.1ZM50.4002 21.8H26.6002V37.2H50.4002V21.8ZM48.2652 34.4C48.2652 34.785 47.9502 35.1 47.5652 35.1H37.8002C37.4152 35.1 37.1002 34.785 37.1002 34.4C37.1002 32.09 38.4652 30.13 40.4602 29.255C39.7952 28.59 39.3402 27.68 39.3402 26.7C39.3402 24.845 40.8802 23.2 42.6652 23.2C44.4502 23.2 45.9902 24.845 45.9902 26.7C45.9902 27.68 45.5702 28.59 44.8702 29.255C46.8652 30.13 48.2652 32.09 48.2652 34.4ZM40.7402 26.7C40.7402 27.68 41.5802 28.8 42.6652 28.8C43.7502 28.8 44.5902 27.68 44.5902 26.7C44.5902 25.72 43.7502 24.6 42.6652 24.6C41.5802 24.6 40.7402 25.72 40.7402 26.7ZM46.8302 33.7C46.5152 31.705 44.7652 30.2 42.7002 30.2C40.6352 30.2 38.9202 31.705 38.5702 33.7H46.8302Z" fill="white"/>
<path d="M498.4 -264.5V324.9H-126V-264.5H498.4ZM501.2 -267.3H-128.8V327.7H501.2V-267.3Z" fill="#0000FF"/>
</g>
<path d="M26.6754 60.144C26.6754 60.568 26.5754 60.968 26.3754 61.344C26.1754 61.72 25.8554 62.028 25.4154 62.268C24.9754 62.5 24.4114 62.616 23.7234 62.616H22.2114V66H20.8434V57.66H23.7234C24.3634 57.66 24.9034 57.772 25.3434 57.996C25.7914 58.212 26.1234 58.508 26.3394 58.884C26.5634 59.26 26.6754 59.68 26.6754 60.144ZM23.7234 61.5C24.2434 61.5 24.6314 61.384 24.8874 61.152C25.1434 60.912 25.2714 60.576 25.2714 60.144C25.2714 59.232 24.7554 58.776 23.7234 58.776H22.2114V61.5H23.7234ZM29.3481 60.348C29.5481 60.012 29.8121 59.752 30.1401 59.568C30.4761 59.376 30.8721 59.28 31.3281 59.28V60.696H30.9801C30.4441 60.696 30.0361 60.832 29.7561 61.104C29.4841 61.376 29.3481 61.848 29.3481 62.52V66H27.9801V59.388H29.3481V60.348ZM35.4535 66.108C34.8295 66.108 34.2655 65.968 33.7615 65.688C33.2575 65.4 32.8615 65 32.5735 64.488C32.2855 63.968 32.1415 63.368 32.1415 62.688C32.1415 62.016 32.2895 61.42 32.5855 60.9C32.8815 60.38 33.2855 59.98 33.7975 59.7C34.3095 59.42 34.8815 59.28 35.5135 59.28C36.1455 59.28 36.7175 59.42 37.2295 59.7C37.7415 59.98 38.1455 60.38 38.4415 60.9C38.7375 61.42 38.8855 62.016 38.8855 62.688C38.8855 63.36 38.7335 63.956 38.4295 64.476C38.1255 64.996 37.7095 65.4 37.1815 65.688C36.6615 65.968 36.0855 66.108 35.4535 66.108ZM35.4535 64.92C35.8055 64.92 36.1335 64.836 36.4375 64.668C36.7495 64.5 37.0015 64.248 37.1935 63.912C37.3855 63.576 37.4815 63.168 37.4815 62.688C37.4815 62.208 37.3895 61.804 37.2055 61.476C37.0215 61.14 36.7775 60.888 36.4735 60.72C36.1695 60.552 35.8415 60.468 35.4895 60.468C35.1375 60.468 34.8095 60.552 34.5055 60.72C34.2095 60.888 33.9735 61.14 33.7975 61.476C33.6215 61.804 33.5335 62.208 33.5335 62.688C33.5335 63.4 33.7135 63.952 34.0735 64.344C34.4415 64.728 34.9015 64.92 35.4535 64.92ZM43.0099 60.504H41.7859V66H40.4059V60.504H39.6259V59.388H40.4059V58.92C40.4059 58.16 40.6059 57.608 41.0059 57.264C41.4139 56.912 42.0499 56.736 42.9139 56.736V57.876C42.4979 57.876 42.2059 57.956 42.0379 58.116C41.8699 58.268 41.7859 58.536 41.7859 58.92V59.388H43.0099V60.504ZM44.9183 58.512C44.6703 58.512 44.4623 58.428 44.2943 58.26C44.1263 58.092 44.0423 57.884 44.0423 57.636C44.0423 57.388 44.1263 57.18 44.2943 57.012C44.4623 56.844 44.6703 56.76 44.9183 56.76C45.1583 56.76 45.3623 56.844 45.5303 57.012C45.6983 57.18 45.7823 57.388 45.7823 57.636C45.7823 57.884 45.6983 58.092 45.5303 58.26C45.3623 58.428 45.1583 58.512 44.9183 58.512ZM45.5903 59.388V66H44.2223V59.388H45.5903ZM48.7543 57.12V66H47.3863V57.12H48.7543ZM56.6104 62.532C56.6104 62.78 56.5944 63.004 56.5624 63.204H51.5104C51.5504 63.732 51.7464 64.156 52.0984 64.476C52.4504 64.796 52.8824 64.956 53.3944 64.956C54.1304 64.956 54.6504 64.648 54.9544 64.032H56.4304C56.2304 64.64 55.8664 65.14 55.3384 65.532C54.8184 65.916 54.1704 66.108 53.3944 66.108C52.7624 66.108 52.1944 65.968 51.6904 65.688C51.1944 65.4 50.8024 65 50.5144 64.488C50.2344 63.968 50.0944 63.368 50.0944 62.688C50.0944 62.008 50.2304 61.412 50.5024 60.9C50.7824 60.38 51.1704 59.98 51.6664 59.7C52.1704 59.42 52.7464 59.28 53.3944 59.28C54.0184 59.28 54.5744 59.416 55.0624 59.688C55.5504 59.96 55.9304 60.344 56.2024 60.84C56.4744 61.328 56.6104 61.892 56.6104 62.532ZM55.1824 62.1C55.1744 61.596 54.9944 61.192 54.6424 60.888C54.2904 60.584 53.8544 60.432 53.3344 60.432C52.8624 60.432 52.4584 60.584 52.1224 60.888C51.7864 61.184 51.5864 61.588 51.5224 62.1H55.1824Z" fill="white"/>
<defs>
<clipPath id="clip0_62_1050">
<rect width="35" height="35" fill="white" transform="translate(21 12)"/>
</clipPath>
</defs>
</svg>
