<svg width="77" height="78" viewBox="0 0 77 78" fill="none" xmlns="http://www.w3.org/2000/svg">
<rect width="77" height="78" rx="8" fill="#713F97"/>
<path d="M34.5 15C33.955 15 33.5 15.455 33.5 16H29C28.178 16 27.5 16.678 27.5 17.5V40.5C27.5 41.322 28.178 42 29 42H47C47.822 42 48.5 41.322 48.5 40.5V17.5C48.5 16.678 47.822 16 47 16H42.5C42.5 15.455 42.045 15 41.5 15H34.5ZM34.5 16H41.5V18.012H34.5V16ZM29 17H29.537C29.356 17.27 29.25 17.598 29.25 17.947V33.03C29.24 33.714 30.26 33.714 30.25 33.03V17.947C30.248 17.8571 30.2641 17.7677 30.2974 17.6841C30.3306 17.6006 30.3804 17.5246 30.4436 17.4606C30.5069 17.3967 30.5824 17.3462 30.6656 17.312C30.7488 17.2779 30.8381 17.2609 30.928 17.262H33.5V18.012C33.5 18.557 33.955 19.012 34.5 19.012H41.5C42.045 19.012 42.5 18.557 42.5 18.012V17.262H45.072C45.1619 17.2609 45.2512 17.2779 45.3344 17.312C45.4176 17.3462 45.4931 17.3967 45.5564 17.4606C45.6196 17.5246 45.6694 17.6006 45.7026 17.6841C45.7359 17.7677 45.752 17.8571 45.75 17.947V34H43.893C43.139 34 42.624 34.447 42.416 34.857C42.208 35.268 42.215 35.664 42.215 35.664V37.988H30.928C30.8381 37.9891 30.7488 37.9721 30.6656 37.938C30.5824 37.9038 30.5069 37.8533 30.4436 37.7894C30.3804 37.7254 30.3306 37.6494 30.2974 37.5659C30.2641 37.4823 30.248 37.3929 30.25 37.303V35.073C30.26 34.388 29.24 34.388 29.25 35.073V37.303C29.25 38.234 30.007 39 30.928 39H42.715C42.7807 38.9997 42.8457 38.9865 42.9062 38.9611C42.9668 38.9357 43.0218 38.8986 43.068 38.852L46.604 35.279C46.6976 35.1838 46.75 35.0555 46.75 34.922V17.947C46.75 17.598 46.644 17.271 46.463 17H47C47.286 17 47.5 17.215 47.5 17.5V40.5C47.5 40.786 47.286 41 47 41H29C28.9339 41.0016 28.8681 40.9898 28.8067 40.9653C28.7453 40.9408 28.6895 40.904 28.6428 40.8572C28.596 40.8105 28.5592 40.7547 28.5347 40.6933C28.5102 40.6319 28.4984 40.5661 28.5 40.5V17.5C28.5 17.215 28.714 17 29 17ZM32.23 22.506C31.9709 22.5086 31.7231 22.6127 31.5399 22.7959C31.3567 22.9791 31.2526 23.2269 31.25 23.486V32.776C31.25 33.31 31.696 33.756 32.23 33.756H43.77C44.0291 33.7534 44.2769 33.6493 44.4601 33.4661C44.6433 33.2829 44.7474 33.0351 44.75 32.776V23.486C44.7474 23.2269 44.6433 22.9791 44.4601 22.7959C44.2769 22.6127 44.0291 22.5086 43.77 22.506H41.746C41.6134 22.506 41.4862 22.5587 41.3924 22.6524C41.2987 22.7462 41.246 22.8734 41.246 23.006C41.246 23.1386 41.2987 23.2658 41.3924 23.3596C41.4862 23.4533 41.6134 23.506 41.746 23.506H43.75V32.756H32.25V23.506H40.258C40.3906 23.506 40.5178 23.4533 40.6116 23.3596C40.7053 23.2658 40.758 23.1386 40.758 23.006C40.758 22.8734 40.7053 22.7462 40.6116 22.6524C40.5178 22.5587 40.3906 22.506 40.258 22.506H32.23ZM35.473 24.006V24.008C35.3771 24.0132 35.2848 24.0458 35.207 24.102L34.145 24.846L33.871 24.553C33.7795 24.46 33.6553 24.4064 33.5249 24.4036C33.3944 24.4009 33.2681 24.4493 33.1728 24.5384C33.0776 24.6276 33.0209 24.7504 33.015 24.8807C33.009 25.0111 33.0542 25.1386 33.141 25.236L33.711 25.846C33.7935 25.9337 33.9049 25.9886 34.0247 26.0007C34.1445 26.0128 34.2646 25.9813 34.363 25.912L35.781 24.918C35.871 24.8565 35.9383 24.7672 35.9729 24.6638C36.0074 24.5605 36.0073 24.4486 35.9724 24.3454C35.9375 24.2421 35.8698 24.1531 35.7797 24.0918C35.6895 24.0305 35.5819 24.0004 35.473 24.006ZM37.441 25.006C37.3084 25.0128 37.1839 25.0719 37.0949 25.1705C37.0059 25.269 36.9597 25.3989 36.9665 25.5315C36.9733 25.6641 37.0324 25.7886 37.131 25.8776C37.2295 25.9666 37.3594 26.0128 37.492 26.006H42.492C42.6246 26.006 42.7518 25.9533 42.8456 25.8596C42.9393 25.7658 42.992 25.6386 42.992 25.506C42.992 25.3734 42.9393 25.2462 42.8456 25.1524C42.7518 25.0587 42.6246 25.006 42.492 25.006H37.492C37.4753 25.0052 37.4587 25.0052 37.442 25.006H37.441ZM35.473 27.006V27.008C35.3771 27.0132 35.2848 27.0458 35.207 27.102L34.145 27.846L33.871 27.553C33.7795 27.46 33.6553 27.4064 33.5249 27.4036C33.3944 27.4009 33.2681 27.4493 33.1728 27.5384C33.0776 27.6276 33.0209 27.7504 33.015 27.8807C33.009 28.0111 33.0542 28.1386 33.141 28.236L33.711 28.846C33.7935 28.9337 33.9049 28.9886 34.0247 29.0007C34.1445 29.0128 34.2646 28.9813 34.363 28.912L35.781 27.918C35.871 27.8565 35.9383 27.7672 35.9729 27.6638C36.0074 27.5605 36.0073 27.4486 35.9724 27.3454C35.9375 27.2421 35.8698 27.1531 35.7797 27.0918C35.6895 27.0305 35.5819 27.0004 35.473 27.006ZM37.441 28.006C37.3084 28.0128 37.1839 28.0719 37.0949 28.1705C37.0059 28.269 36.9597 28.3989 36.9665 28.5315C36.9733 28.6641 37.0324 28.7886 37.131 28.8776C37.2295 28.9666 37.3594 29.0128 37.492 29.006H42.492C42.6246 29.006 42.7518 28.9533 42.8456 28.8596C42.9393 28.7658 42.992 28.6386 42.992 28.506C42.992 28.3734 42.9393 28.2462 42.8456 28.1524C42.7518 28.0587 42.6246 28.006 42.492 28.006H37.492C37.4753 28.0052 37.4587 28.0052 37.442 28.006H37.441ZM35.473 30.006V30.008C35.3771 30.0132 35.2848 30.0458 35.207 30.102L34.145 30.846L33.871 30.553C33.7795 30.46 33.6553 30.4064 33.5249 30.4036C33.3944 30.4009 33.2681 30.4493 33.1728 30.5384C33.0776 30.6276 33.0209 30.7504 33.015 30.8807C33.009 31.0111 33.0542 31.1386 33.141 31.236L33.711 31.846C33.7935 31.9337 33.9049 31.9886 34.0247 32.0007C34.1445 32.0128 34.2646 31.9813 34.363 31.912L35.781 30.918C35.871 30.8565 35.9383 30.7672 35.9729 30.6638C36.0074 30.5605 36.0073 30.4486 35.9724 30.3454C35.9375 30.2421 35.8698 30.1531 35.7797 30.0918C35.6895 30.0305 35.5819 30.0004 35.473 30.006ZM37.441 31.006C37.3084 31.0128 37.1839 31.0719 37.0949 31.1705C37.0059 31.269 36.9597 31.3989 36.9665 31.5315C36.9733 31.6641 37.0324 31.7886 37.131 31.8776C37.2295 31.9666 37.3594 32.0128 37.492 32.006H42.492C42.6246 32.006 42.7518 31.9533 42.8456 31.8596C42.9393 31.7658 42.992 31.6386 42.992 31.506C42.992 31.3734 42.9393 31.2462 42.8456 31.1524C42.7518 31.0587 42.6246 31.006 42.492 31.006H37.492C37.4753 31.0052 37.4587 31.0052 37.442 31.006H37.441ZM43.893 35H45.043L43.215 36.826V35.664C43.215 35.664 43.222 35.48 43.309 35.309C43.395 35.137 43.468 35 43.893 35Z" fill="white"/>
<path d="M15.8774 61.896H18.6974V63H14.5094V54.66H15.8774V61.896ZM19.3854 59.664C19.3854 59 19.5214 58.412 19.7934 57.9C20.0734 57.388 20.4494 56.992 20.9214 56.712C21.4014 56.424 21.9294 56.28 22.5054 56.28C23.0254 56.28 23.4774 56.384 23.8614 56.592C24.2534 56.792 24.5654 57.044 24.7974 57.348V56.388H26.1774V63H24.7974V62.016C24.5654 62.328 24.2494 62.588 23.8494 62.796C23.4494 63.004 22.9934 63.108 22.4814 63.108C21.9134 63.108 21.3934 62.964 20.9214 62.676C20.4494 62.38 20.0734 61.972 19.7934 61.452C19.5214 60.924 19.3854 60.328 19.3854 59.664ZM24.7974 59.688C24.7974 59.232 24.7014 58.836 24.5094 58.5C24.3254 58.164 24.0814 57.908 23.7774 57.732C23.4734 57.556 23.1454 57.468 22.7934 57.468C22.4414 57.468 22.1134 57.556 21.8094 57.732C21.5054 57.9 21.2574 58.152 21.0654 58.488C20.8814 58.816 20.7894 59.208 20.7894 59.664C20.7894 60.12 20.8814 60.52 21.0654 60.864C21.2574 61.208 21.5054 61.472 21.8094 61.656C22.1214 61.832 22.4494 61.92 22.7934 61.92C23.1454 61.92 23.4734 61.832 23.7774 61.656C24.0814 61.48 24.3254 61.224 24.5094 60.888C24.7014 60.544 24.7974 60.144 24.7974 59.688ZM29.3422 57.36C29.5742 57.056 29.8902 56.8 30.2902 56.592C30.6902 56.384 31.1422 56.28 31.6462 56.28C32.2222 56.28 32.7462 56.424 33.2182 56.712C33.6982 56.992 34.0742 57.388 34.3462 57.9C34.6182 58.412 34.7542 59 34.7542 59.664C34.7542 60.328 34.6182 60.924 34.3462 61.452C34.0742 61.972 33.6982 62.38 33.2182 62.676C32.7462 62.964 32.2222 63.108 31.6462 63.108C31.1422 63.108 30.6942 63.008 30.3022 62.808C29.9102 62.6 29.5902 62.344 29.3422 62.04V66.144H27.9742V56.388H29.3422V57.36ZM33.3622 59.664C33.3622 59.208 33.2662 58.816 33.0742 58.488C32.8902 58.152 32.6422 57.9 32.3302 57.732C32.0262 57.556 31.6982 57.468 31.3462 57.468C31.0022 57.468 30.6742 57.556 30.3622 57.732C30.0582 57.908 29.8102 58.164 29.6182 58.5C29.4342 58.836 29.3422 59.232 29.3422 59.688C29.3422 60.144 29.4342 60.544 29.6182 60.888C29.8102 61.224 30.0582 61.48 30.3622 61.656C30.6742 61.832 31.0022 61.92 31.3462 61.92C31.6982 61.92 32.0262 61.832 32.3302 61.656C32.6422 61.472 32.8902 61.208 33.0742 60.864C33.2662 60.52 33.3622 60.12 33.3622 59.664ZM38.975 63.108C38.351 63.108 37.787 62.968 37.283 62.688C36.779 62.4 36.383 62 36.095 61.488C35.807 60.968 35.663 60.368 35.663 59.688C35.663 59.016 35.811 58.42 36.107 57.9C36.403 57.38 36.807 56.98 37.319 56.7C37.831 56.42 38.403 56.28 39.035 56.28C39.667 56.28 40.239 56.42 40.751 56.7C41.263 56.98 41.667 57.38 41.963 57.9C42.259 58.42 42.407 59.016 42.407 59.688C42.407 60.36 42.255 60.956 41.951 61.476C41.647 61.996 41.231 62.4 40.703 62.688C40.183 62.968 39.607 63.108 38.975 63.108ZM38.975 61.92C39.327 61.92 39.655 61.836 39.959 61.668C40.271 61.5 40.523 61.248 40.715 60.912C40.907 60.576 41.003 60.168 41.003 59.688C41.003 59.208 40.911 58.804 40.727 58.476C40.543 58.14 40.299 57.888 39.995 57.72C39.691 57.552 39.363 57.468 39.011 57.468C38.659 57.468 38.331 57.552 38.027 57.72C37.731 57.888 37.495 58.14 37.319 58.476C37.143 58.804 37.055 59.208 37.055 59.688C37.055 60.4 37.235 60.952 37.595 61.344C37.963 61.728 38.423 61.92 38.975 61.92ZM45.1274 57.348C45.3274 57.012 45.5914 56.752 45.9194 56.568C46.2554 56.376 46.6514 56.28 47.1074 56.28V57.696H46.7594C46.2234 57.696 45.8154 57.832 45.5354 58.104C45.2634 58.376 45.1274 58.848 45.1274 59.52V63H43.7594V56.388H45.1274V57.348ZM47.9088 59.664C47.9088 59 48.0448 58.412 48.3168 57.9C48.5968 57.388 48.9728 56.992 49.4448 56.712C49.9248 56.424 50.4528 56.28 51.0288 56.28C51.5488 56.28 52.0008 56.384 52.3848 56.592C52.7768 56.792 53.0888 57.044 53.3208 57.348V56.388H54.7008V63H53.3208V62.016C53.0888 62.328 52.7728 62.588 52.3728 62.796C51.9728 63.004 51.5168 63.108 51.0048 63.108C50.4368 63.108 49.9168 62.964 49.4448 62.676C48.9728 62.38 48.5968 61.972 48.3168 61.452C48.0448 60.924 47.9088 60.328 47.9088 59.664ZM53.3208 59.688C53.3208 59.232 53.2248 58.836 53.0328 58.5C52.8488 58.164 52.6048 57.908 52.3008 57.732C51.9968 57.556 51.6688 57.468 51.3168 57.468C50.9648 57.468 50.6368 57.556 50.3328 57.732C50.0288 57.9 49.7808 58.152 49.5888 58.488C49.4048 58.816 49.3128 59.208 49.3128 59.664C49.3128 60.12 49.4048 60.52 49.5888 60.864C49.7808 61.208 50.0288 61.472 50.3328 61.656C50.6448 61.832 50.9728 61.92 51.3168 61.92C51.6688 61.92 51.9968 61.832 52.3008 61.656C52.6048 61.48 52.8488 61.224 53.0328 60.888C53.2248 60.544 53.3208 60.144 53.3208 59.688ZM59.8337 56.28C60.3537 56.28 60.8177 56.388 61.2257 56.604C61.6417 56.82 61.9657 57.14 62.1977 57.564C62.4297 57.988 62.5457 58.5 62.5457 59.1V63H61.1897V59.304C61.1897 58.712 61.0417 58.26 60.7457 57.948C60.4497 57.628 60.0457 57.468 59.5337 57.468C59.0217 57.468 58.6137 57.628 58.3097 57.948C58.0137 58.26 57.8657 58.712 57.8657 59.304V63H56.4977V56.388H57.8657V57.144C58.0897 56.872 58.3737 56.66 58.7177 56.508C59.0697 56.356 59.4417 56.28 59.8337 56.28Z" fill="white"/>
</svg>
